<svg width="1600" height="900" viewBox="0 0 1600 900" fill="none" xmlns="http://www.w3.org/2000/svg">
  <rect width="1600" height="900" fill="#2A2436"/>
  <rect x="80" y="100" width="1440" height="700" rx="30" fill="#3B3150"/>
  <rect x="130" y="150" width="680" height="600" rx="24" fill="#52406B"/>
  <rect x="170" y="210" width="600" height="320" rx="16" fill="#201B2A"/>
  <rect x="210" y="250" width="250" height="70" rx="10" fill="#F0A6A6"/>
  <rect x="490" y="250" width="240" height="70" rx="10" fill="#A6DDF0"/>
  <rect x="210" y="350" width="520" height="130" rx="10" fill="#DBC6FF"/>
  <rect x="860" y="150" width="610" height="600" rx="24" fill="#52406B"/>
  <circle cx="980" cy="320" r="68" fill="#F0A6A6"/>
  <circle cx="1140" cy="320" r="68" fill="#A6DDF0"/>
  <circle cx="1300" cy="320" r="68" fill="#C5F0A6"/>
  <rect x="930" y="420" width="420" height="220" rx="16" fill="#201B2A"/>
  <rect x="980" y="480" width="320" height="60" rx="10" fill="#EAD7FF"/>
  <text x="124" y="865" fill="#F7EEFF" font-family="Verdana, sans-serif" font-size="52" font-weight="700">Community Vorfuehrung und Feedback</text>
</svg>
